<?xml version="1.0" encoding="UTF-8"?>
<svg id="Capa_1" data-name="Capa 1" xmlns="http://www.w3.org/2000/svg" viewBox="0 0 170.08 170.08">
  <rect y="2.01" width="170.08" height="166.05" rx="47.48" ry="47.48" fill="#d60b52"/>
  <g>
    <path d="M63.47,98.51h-14.29c-4.47,0-8.11,3.64-8.11,8.11v14.29c0,4.47,3.64,8.11,8.11,8.11h14.29c4.47,0,8.11-3.64,8.11-8.11v-14.29c0-4.47-3.64-8.11-8.11-8.11ZM64.1,120.9c0,.35-.29.64-.64.64h-14.29c-.35,0-.64-.29-.64-.64v-14.29c0-.35.29-.64.64-.64h14.29c.35,0,.64.29.64.64v14.29Z" fill="#fff"/>
    <path d="M120.9,41.07h-14.29c-4.47,0-8.11,3.64-8.11,8.11v14.29c0,4.47,3.64,8.11,8.11,8.11h14.29c4.47,0,8.11-3.64,8.11-8.11v-14.29c0-4.47-3.64-8.11-8.11-8.11ZM121.54,63.47c0,.35-.29.64-.64.64h-14.29c-.35,0-.64-.29-.64-.64v-14.29c0-.35.29-.64.64-.64h14.29c.35,0,.64.29.64.64v14.29Z" fill="#fff"/>
    <path d="M63.47,41.07h-14.29c-4.47,0-8.11,3.64-8.11,8.11v14.29c0,4.47,3.64,8.11,8.11,8.11h14.29c4.47,0,8.11-3.64,8.11-8.11v-14.29c0-4.47-3.64-8.11-8.11-8.11ZM64.1,63.47c0,.35-.29.64-.64.64h-14.29c-.35,0-.64-.29-.64-.64v-14.29c0-.35.29-.64.64-.64h14.29c.35,0,.64.29.64.64v14.29Z" fill="#fff"/>
    <circle cx="85.04" cy="48.54" r="3.73" fill="#fff"/>
    <circle cx="85.04" cy="64.1" r="3.73" fill="#fff"/>
    <circle cx="64.1" cy="85.71" r="3.73" fill="#fff"/>
    <circle cx="48.54" cy="85.71" r="3.73" fill="#fff"/>
    <path d="M72.53,76c2.67-2.67,7-2.67,9.67,0,1.46,1.46,1.98,3.06,1.98,5.34v6.33s-4.03-.02-6.31-.02-3.87-.52-5.34-1.98c-2.67-2.67-2.67-7,0-9.67Z" fill="#fff"/>
    <path d="M78.47,95.1c-1.31-1.31-1.31-3.42,0-4.73s3.42-1.31,4.73,0c1.31,1.31,1.31,3.42,0,4.73-1.31,1.31-3.42,1.31-4.73,0Z" fill="#fff"/>
    <path d="M88.77,121.8c0,2.09-1.69,3.78-3.78,3.78s-3.69-1.65-3.69-3.69v-13.87c0-2.09,1.69-3.78,3.78-3.78h.01c2.03,0,3.67,1.64,3.67,3.67v13.89Z" fill="#fff"/>
    <path d="M91.61,95.1c-1.31,1.31-3.42,1.31-4.73,0-1.31-1.31-1.31-3.42,0-4.73,1.31-1.31,3.42-1.31,4.73,0,1.31,1.31,1.31,3.42,0,4.73Z" fill="#fff"/>
    <path d="M92.21,87.65c-2.28,0-6.31.02-6.31.02v-6.33c0-2.28.52-3.87,1.98-5.34,2.67-2.67,7-2.67,9.67,0,2.67,2.67,2.67,7,0,9.67-1.46,1.46-3.05,1.98-5.34,1.98Z" fill="#fff"/>
    <circle cx="121.54" cy="121.54" r="3.73" fill="#fff"/>
    <path d="M128.75,102.41c-.01,1.97-1.62,3.56-3.59,3.56h-18.55c-.35,0-.64.29-.64.64v18.71c0,2.04-1.65,3.69-3.69,3.69h-.19c-1.99,0-3.6-1.61-3.6-3.6v-18.8c0-4.48,3.63-8.11,8.11-8.11h18.5c2.01,0,3.64,1.63,3.64,3.64,0,.09,0,.18,0,.27Z" fill="#fff"/>
    <circle cx="105.98" cy="85.71" r="3.73" fill="#fff"/>
    <circle cx="121.54" cy="85.71" r="3.73" fill="#fff"/>
  </g>
</svg>