<?xml version="1.0" encoding="UTF-8"?>
<svg id="Capa_1" data-name="Capa 1" xmlns="http://www.w3.org/2000/svg" viewBox="0 0 134.2 131.02">
  <path d="M38.8,82.03h11.28c.28,0,.5.23.5.5v11.28c0,.28-.23.5-.5.5h-11.28c-.28,0-.5-.23-.5-.5v-11.28c0-.28.23-.5.5-.5Z" fill="#d60b52"/>
  <path d="M84.12,36.71h11.28c.28,0,.5.23.5.5v11.28c0,.28-.23.5-.5.5h-11.28c-.28,0-.5-.23-.5-.5v-11.28c0-.28.23-.5.5-.5Z" fill="#d60b52"/>
  <path d="M38.8,36.71h11.28c.28,0,.5.23.5.5v11.28c0,.28-.23.5-.5.5h-11.28c-.28,0-.5-.23-.5-.5v-11.28c0-.28.23-.5.5-.5Z" fill="#d60b52"/>
  <path d="M96.74,0h-59.28C16.77,0,0,16.77,0,37.46v56.1c0,20.69,16.77,37.46,37.46,37.46h59.28c20.69,0,37.46-16.77,37.46-37.46v-56.1C134.2,16.77,117.43,0,96.74,0ZM67.1,33.76c1.63,0,2.95,1.32,2.95,2.95s-1.32,2.95-2.95,2.95-2.95-1.32-2.95-2.95,1.32-2.95,2.95-2.95ZM67.1,46.05c1.63,0,2.95,1.32,2.95,2.95s-1.32,2.95-2.95,2.95-2.95-1.32-2.95-2.95,1.32-2.95,2.95-2.95ZM32.41,37.21c0-3.53,2.87-6.4,6.4-6.4h11.28c3.53,0,6.4,2.87,6.4,6.4v11.28c0,3.53-2.87,6.4-6.4,6.4h-11.28c-3.53,0-6.4-2.87-6.4-6.4v-11.28ZM53.53,66.04c0,1.63-1.32,2.95-2.95,2.95s-2.95-1.32-2.95-2.95,1.32-2.95,2.95-2.95,2.95,1.32,2.95,2.95ZM41.24,66.04c0,1.63-1.32,2.95-2.95,2.95s-2.95-1.32-2.95-2.95,1.32-2.95,2.95-2.95,2.95,1.32,2.95,2.95ZM56.47,93.81c0,3.53-2.87,6.4-6.4,6.4h-11.28c-3.53,0-6.4-2.87-6.4-6.4v-11.28c0-3.53,2.87-6.4,6.4-6.4h11.28c3.53,0,6.4,2.87,6.4,6.4v11.28ZM57.23,58.38c2.11-2.11,5.52-2.11,7.63,0,1.15,1.15,1.56,2.41,1.56,4.21v4.99s-3.18-.01-4.98-.01-3.06-.41-4.21-1.56c-2.11-2.11-2.11-5.52,0-7.63ZM61.92,73.45c-1.03-1.03-1.03-2.7,0-3.73s2.7-1.03,3.73,0c1.03,1.03,1.03,2.7,0,3.73-1.03,1.03-2.7,1.03-3.73,0ZM70.05,94.52c0,1.65-1.33,2.98-2.98,2.98s-2.91-1.3-2.91-2.91v-10.94c0-1.65,1.34-2.98,2.98-2.98h.01c1.6,0,2.9,1.3,2.9,2.9v10.96ZM72.29,73.45c-1.03,1.03-2.7,1.03-3.73,0-1.03-1.03-1.03-2.7,0-3.73,1.03-1.03,2.7-1.03,3.73,0,1.03,1.03,1.03,2.7,0,3.73ZM72.76,67.57c-1.8,0-4.98.01-4.98.01v-4.99c0-1.8.41-3.06,1.56-4.21,2.11-2.11,5.52-2.11,7.63,0,2.11,2.11,2.11,5.52,0,7.63-1.15,1.15-2.41,1.56-4.21,1.56ZM95.91,97.26c-1.63,0-2.95-1.32-2.95-2.95s1.32-2.95,2.95-2.95,2.95,1.32,2.95,2.95-1.32,2.95-2.95,2.95ZM101.59,79.22c0,1.56-1.28,2.81-2.83,2.81h-14.63c-.28,0-.5.23-.5.5v14.76c0,1.61-1.3,2.91-2.91,2.91h-.15c-1.57,0-2.84-1.27-2.84-2.84v-14.84c0-3.53,2.86-6.4,6.4-6.4h14.6c1.58,0,2.87,1.29,2.87,2.87,0,.07,0,.14,0,.21ZM80.68,66.04c0-1.63,1.32-2.95,2.95-2.95s2.95,1.32,2.95,2.95-1.32,2.95-2.95,2.95-2.95-1.32-2.95-2.95ZM92.96,66.04c0-1.63,1.32-2.95,2.95-2.95s2.95,1.32,2.95,2.95-1.32,2.95-2.95,2.95-2.95-1.32-2.95-2.95ZM101.8,48.49c0,3.53-2.87,6.4-6.4,6.4h-11.28c-3.53,0-6.4-2.87-6.4-6.4v-11.28c0-3.53,2.87-6.4,6.4-6.4h11.28c3.53,0,6.4,2.87,6.4,6.4v11.28Z" fill="#d60b52"/>
</svg>