<?xml version="1.0" encoding="UTF-8"?>
<svg id="Capa_1" data-name="Capa 1" xmlns="http://www.w3.org/2000/svg" viewBox="0 0 377.84 128.6">
  <g>
    <g>
      <path d="M163.25,13.52l-22.34,51.96c-1.07,2.5.76,5.28,3.47,5.28h.16c1.51,0,2.88-.9,3.47-2.29l18.75-43.62c.26-.6,1.11-.6,1.37,0l18.75,43.62c.6,1.39,1.96,2.29,3.47,2.29h.08c2.72,0,4.55-2.78,3.47-5.28l-22.34-51.96c-.6-1.39-1.96-2.29-3.47-2.29h-1.38c-1.51,0-2.88.9-3.47,2.29Z" fill="#fff"/>
      <path d="M345.98,13.52l-22.34,51.96c-1.07,2.5.76,5.28,3.47,5.28h.16c1.51,0,2.88-.9,3.47-2.29l18.75-43.62c.26-.6,1.11-.6,1.37,0l18.75,43.62c.6,1.39,1.96,2.29,3.47,2.29h.08c2.72,0,4.55-2.78,3.47-5.28l-22.34-51.96c-.6-1.39-1.96-2.29-3.47-2.29h-1.38c-1.51,0-2.88.9-3.47,2.29Z" fill="#fff"/>
      <rect x="202.26" y="23.69" width="7.68" height="47.06" rx="3.78" ry="3.78" fill="#fff"/>
      <path d="M256.75,15.5c-3.95-2.84-8.92-4.27-14.75-4.27h-17.34c-2.09,0-3.78,1.69-3.78,3.78v.12c0,2.09,1.69,3.78,3.78,3.78h17.34c4.05,0,7.39.91,10.2,2.75,2.81,1.9,4.97,4.51,6.42,7.76,1.54,3.44,2.32,7.33,2.32,11.56s-.78,8.12-2.32,11.56c-1.44,3.23-3.54,5.74-6.4,7.67-2.91,1.92-6.25,2.85-10.22,2.85h-9.87c-2.09,0-3.78-1.69-3.78-3.78v-18.62c0-2.09-1.69-3.78-3.78-3.78h0c-2.09,0-3.78,1.69-3.78,3.78v21.23c.02,4.89,3.98,8.85,8.87,8.85h12.35c5.76,0,10.73-1.46,14.75-4.35,3.97-2.85,6.98-6.58,8.93-11.07,1.95-4.49,2.94-9.32,2.94-14.33s-.99-9.92-2.94-14.41c-1.95-4.5-4.95-8.22-8.93-11.07Z" fill="#fff"/>
      <rect x="274.82" y="37.15" width="37.37" height="7.68" rx="3.78" ry="3.78" fill="#fff"/>
      <rect x="274.82" y="63.07" width="42.87" height="7.68" rx="3.78" ry="3.78" fill="#fff"/>
      <rect x="274.82" y="11.23" width="42.08" height="7.68" rx="3.78" ry="3.78" fill="#fff"/>
    </g>
    <circle cx="206.1" cy="15.64" r="4.57" fill="#d61f52"/>
  </g>
  <g>
    <path d="M369.17,82.67c-2.89-2.07-6.51-3.12-10.78-3.12h-12.66c-1.53,0-2.76,1.24-2.76,2.76v.09c0,1.53,1.24,2.76,2.76,2.76h12.66c2.96,0,5.4.66,7.45,2.01,2.05,1.38,3.63,3.29,4.69,5.67,1.12,2.51,1.69,5.35,1.69,8.44s-.57,5.93-1.69,8.44c-1.05,2.36-2.59,4.19-4.68,5.6-2.12,1.4-4.57,2.08-7.46,2.08h-7.21c-1.53,0-2.76-1.24-2.76-2.76v-13.6c0-1.53-1.24-2.76-2.76-2.76h0c-1.53,0-2.76,1.24-2.76,2.76v15.51c.01,3.57,2.91,6.46,6.48,6.46h9.02c4.21,0,7.84-1.07,10.78-3.18,2.9-2.08,5.1-4.8,6.52-8.09,1.42-3.28,2.14-6.8,2.14-10.47s-.72-7.24-2.14-10.53c-1.43-3.28-3.62-6.01-6.52-8.09Z" fill="#fff"/>
    <g>
      <path d="M312.96,85.06s.03,0,.04,0h10.95c2.93,0,5.19.52,6.73,1.55,1.27.94,1.91,2.71,1.91,5.25s-.63,4.25-1.85,5.13c-1.47,1.03-3.66,1.55-6.5,1.55h-11.25s-.01,0-.02,0-.01,0-.02,0h-.35v.03c-1.34.18-2.38,1.33-2.38,2.73s1.12,2.63,2.53,2.74h0s.2.01.2.01c0,0,.01,0,.02,0s.01,0,.02,0h8.49c1.81,0,3.24.42,4.38,1.28,1.14.87,2.76,3.6,4.8,8.13,1.65,3.66,2.77,6.18,3.42,7.64.35,1.12,1.39,1.93,2.63,1.93,1.52,0,2.75-1.23,2.75-2.75,0-.29-.05-.57-.13-.84l.02-.05c-.53-1.24-1.31-2.82-2.94-6.5-1.74-3.91-3.07-6.6-4.06-8.23l-.04-.06c-.37-.55-.73-1.05-1.08-1.49,1.53-.6,2.9-1.51,4.08-2.74,1.85-1.99,2.79-4.85,2.79-8.51,0-4.38-1.34-7.6-4-9.58-2.51-1.8-5.92-2.72-10.14-2.72h-11.16,0c-1.44.1-2.58,1.29-2.58,2.75s1.23,2.75,2.75,2.75Z" fill="#fff"/>
      <path d="M274.3,119.38h0c-.09.28-.15.58-.15.88,0,1.52,1.23,2.75,2.75,2.75,1.13,0,2.11-.68,2.53-1.66h0s14.25-33.21,14.25-33.21l14.14,32.9c.34,1.14,1.39,1.98,2.64,1.98,1.52,0,2.75-1.23,2.75-2.75,0-.24-.03-.47-.09-.7h.02s-.08-.2-.08-.2c-.05-.14-.1-.27-.17-.4l-15.96-37.11c-.05-.14-.11-.27-.17-.41l-.07-.16h-.02c-.6-1.04-1.73-1.75-3.02-1.75s-2.46.73-3.05,1.81h-.03s-16.19,37.79-16.19,37.79c-.01.03-.02.05-.03.08l-.06.15Z" fill="#fff"/>
      <path d="M240.46,83.19h0c.09-.28.15-.58.15-.88,0-1.52-1.23-2.75-2.75-2.75-1.13,0-2.11.68-2.53,1.66h0s-14.25,33.21-14.25,33.21l-14.14-32.9c-.34-1.14-1.39-1.98-2.64-1.98-1.52,0-2.75,1.23-2.75,2.75,0,.24.03.47.09.7h-.02s.08.2.08.2c.05.14.1.27.17.4l15.96,37.11c.05.14.11.27.17.41l.07.16h.02c.6,1.04,1.73,1.75,3.02,1.75s2.46-.73,3.05-1.81h.03s16.19-37.79,16.19-37.79c.01-.03.02-.05.03-.08l.06-.15Z" fill="#fff"/>
      <path d="M243.66,116.3c3.53,4.39,8.57,6.72,14.59,6.72,5.18,0,9.81-1.85,13.24-5.23.67-.5,1.1-1.3,1.1-2.2,0-1.52-1.23-2.75-2.75-2.75-.68,0-1.3.25-1.78.66-.02,0-.03,0-.04,0-2.42,2.67-5.7,4.02-9.76,4.02-8.46,0-13.93-6.37-13.93-16.23s5.47-16.23,13.93-16.23c3.87,0,7.03,1.23,9.41,3.65.5.62,1.28,1.02,2.14,1.02,1.52,0,2.75-1.23,2.75-2.75,0-.57-.17-1.09-.46-1.53,0-.02,0-.04,0-.05-.05-.05-.1-.1-.15-.15-.1-.13-.22-.24-.34-.35-3.44-3.46-8.12-5.35-13.36-5.35-6.01,0-11.06,2.32-14.59,6.72-3.13,3.89-4.85,9.23-4.85,15.02s1.72,11.12,4.85,15.02Z" fill="#fff"/>
    </g>
  </g>
  <g>
    <path d="M36.77.52h58.18c20.29,0,36.77,16.48,36.77,36.77v55.06c0,20.29-16.48,36.77-36.77,36.77h-58.18C16.48,129.12,0,112.65,0,92.35v-55.06C0,17,16.48.52,36.77.52Z" fill="#d60b52"/>
    <g>
      <path d="M49.15,75.25h-11.07c-3.46,0-6.28,2.82-6.28,6.28v11.07c0,3.46,2.82,6.28,6.28,6.28h11.07c3.46,0,6.28-2.82,6.28-6.28v-11.07c0-3.46-2.82-6.28-6.28-6.28ZM49.65,92.6c0,.27-.22.49-.49.49h-11.07c-.27,0-.49-.22-.49-.49v-11.07c0-.27.22-.49.49-.49h11.07c.27,0,.49.22.49.49v11.07Z" fill="#fff"/>
      <path d="M93.64,30.77h-11.07c-3.46,0-6.28,2.82-6.28,6.28v11.07c0,3.46,2.82,6.28,6.28,6.28h11.07c3.46,0,6.28-2.82,6.28-6.28v-11.07c0-3.46-2.82-6.28-6.28-6.28ZM94.13,48.11c0,.27-.22.49-.49.49h-11.07c-.27,0-.49-.22-.49-.49v-11.07c0-.27.22-.49.49-.49h11.07c.27,0,.49.22.49.49v11.07Z" fill="#fff"/>
      <path d="M49.15,30.77h-11.07c-3.46,0-6.28,2.82-6.28,6.28v11.07c0,3.46,2.82,6.28,6.28,6.28h11.07c3.46,0,6.28-2.82,6.28-6.28v-11.07c0-3.46-2.82-6.28-6.28-6.28ZM49.65,48.11c0,.27-.22.49-.49.49h-11.07c-.27,0-.49-.22-.49-.49v-11.07c0-.27.22-.49.49-.49h11.07c.27,0,.49.22.49.49v11.07Z" fill="#fff"/>
      <circle cx="65.86" cy="36.55" r="2.89" fill="#fff"/>
      <circle cx="65.86" cy="48.61" r="2.89" fill="#fff"/>
      <circle cx="49.65" cy="65.34" r="2.89" fill="#fff"/>
      <circle cx="37.59" cy="65.34" r="2.89" fill="#fff"/>
      <path d="M56.18,57.82c2.07-2.07,5.42-2.07,7.49,0,1.13,1.13,1.53,2.37,1.53,4.13v4.9s-3.12-.01-4.89-.01-3-.4-4.13-1.53c-2.07-2.07-2.07-5.42,0-7.49Z" fill="#fff"/>
      <path d="M60.77,72.61c-1.01-1.01-1.01-2.65,0-3.66s2.65-1.01,3.66,0c1.01,1.01,1.01,2.65,0,3.66-1.01,1.01-2.65,1.01-3.66,0Z" fill="#fff"/>
      <path d="M68.75,93.29c0,1.62-1.31,2.93-2.93,2.93s-2.86-1.28-2.86-2.86v-10.74c0-1.62,1.31-2.93,2.93-2.93h.01c1.57,0,2.84,1.27,2.84,2.84v10.76Z" fill="#fff"/>
      <path d="M70.95,72.61c-1.01,1.01-2.65,1.01-3.66,0-1.01-1.01-1.01-2.65,0-3.66,1.01-1.01,2.65-1.01,3.66,0,1.01,1.01,1.01,2.65,0,3.66Z" fill="#fff"/>
      <path d="M71.41,66.84c-1.77,0-4.89.01-4.89.01v-4.9c0-1.77.4-3,1.53-4.13,2.07-2.07,5.42-2.07,7.49,0,2.07,2.07,2.07,5.42,0,7.49-1.13,1.13-2.36,1.53-4.13,1.53Z" fill="#fff"/>
      <circle cx="94.13" cy="93.09" r="2.89" fill="#fff"/>
      <path d="M99.72,78.28c0,1.53-1.25,2.76-2.78,2.76h-14.36c-.27,0-.49.22-.49.49v14.49c0,1.58-1.28,2.85-2.85,2.85h-.14c-1.54,0-2.79-1.25-2.79-2.79v-14.56c0-3.47,2.81-6.28,6.28-6.28h14.33c1.56,0,2.82,1.26,2.82,2.82,0,.07,0,.14,0,.21Z" fill="#fff"/>
      <circle cx="82.08" cy="65.34" r="2.89" fill="#fff"/>
      <circle cx="94.13" cy="65.34" r="2.89" fill="#fff"/>
    </g>
  </g>
</svg>