<?xml version="1.0" encoding="UTF-8"?>
<svg id="Capa_1" data-name="Capa 1" xmlns="http://www.w3.org/2000/svg" viewBox="0 0 446.66 131.02">
  <g>
    <path d="M38.8,82.03h11.28c.28,0,.5.23.5.5v11.28c0,.28-.23.5-.5.5h-11.28c-.28,0-.5-.23-.5-.5v-11.28c0-.28.23-.5.5-.5Z" fill="#d60b52"/>
    <path d="M84.12,36.71h11.28c.28,0,.5.23.5.5v11.28c0,.28-.23.5-.5.5h-11.28c-.28,0-.5-.23-.5-.5v-11.28c0-.28.23-.5.5-.5Z" fill="#d60b52"/>
    <path d="M38.8,36.71h11.28c.28,0,.5.23.5.5v11.28c0,.28-.23.5-.5.5h-11.28c-.28,0-.5-.23-.5-.5v-11.28c0-.28.23-.5.5-.5Z" fill="#d60b52"/>
    <path d="M96.74,0h-59.28C16.77,0,0,16.77,0,37.46v56.1c0,20.69,16.77,37.46,37.46,37.46h59.28c20.69,0,37.46-16.77,37.46-37.46v-56.1C134.2,16.77,117.43,0,96.74,0ZM67.1,33.76c1.63,0,2.95,1.32,2.95,2.95s-1.32,2.95-2.95,2.95-2.95-1.32-2.95-2.95,1.32-2.95,2.95-2.95ZM67.1,46.05c1.63,0,2.95,1.32,2.95,2.95s-1.32,2.95-2.95,2.95-2.95-1.32-2.95-2.95,1.32-2.95,2.95-2.95ZM32.41,37.21c0-3.53,2.87-6.4,6.4-6.4h11.28c3.53,0,6.4,2.87,6.4,6.4v11.28c0,3.53-2.87,6.4-6.4,6.4h-11.28c-3.53,0-6.4-2.87-6.4-6.4v-11.28ZM53.53,66.04c0,1.63-1.32,2.95-2.95,2.95s-2.95-1.32-2.95-2.95,1.32-2.95,2.95-2.95,2.95,1.32,2.95,2.95ZM41.24,66.04c0,1.63-1.32,2.95-2.95,2.95s-2.95-1.32-2.95-2.95,1.32-2.95,2.95-2.95,2.95,1.32,2.95,2.95ZM56.47,93.81c0,3.53-2.87,6.4-6.4,6.4h-11.28c-3.53,0-6.4-2.87-6.4-6.4v-11.28c0-3.53,2.87-6.4,6.4-6.4h11.28c3.53,0,6.4,2.87,6.4,6.4v11.28ZM57.23,58.38c2.11-2.11,5.52-2.11,7.63,0,1.15,1.15,1.56,2.41,1.56,4.21v4.99s-3.18-.01-4.98-.01-3.06-.41-4.21-1.56c-2.11-2.11-2.11-5.52,0-7.63ZM61.92,73.45c-1.03-1.03-1.03-2.7,0-3.73s2.7-1.03,3.73,0c1.03,1.03,1.03,2.7,0,3.73-1.03,1.03-2.7,1.03-3.73,0ZM70.05,94.52c0,1.65-1.33,2.98-2.98,2.98s-2.91-1.3-2.91-2.91v-10.94c0-1.65,1.34-2.98,2.98-2.98h.01c1.6,0,2.9,1.3,2.9,2.9v10.96ZM72.29,73.45c-1.03,1.03-2.7,1.03-3.73,0-1.03-1.03-1.03-2.7,0-3.73,1.03-1.03,2.7-1.03,3.73,0,1.03,1.03,1.03,2.7,0,3.73ZM72.76,67.57c-1.8,0-4.98.01-4.98.01v-4.99c0-1.8.41-3.06,1.56-4.21,2.11-2.11,5.52-2.11,7.63,0,2.11,2.11,2.11,5.52,0,7.63-1.15,1.15-2.41,1.56-4.21,1.56ZM95.91,97.26c-1.63,0-2.95-1.32-2.95-2.95s1.32-2.95,2.95-2.95,2.95,1.32,2.95,2.95-1.32,2.95-2.95,2.95ZM101.59,79.22c0,1.56-1.28,2.81-2.83,2.81h-14.63c-.28,0-.5.23-.5.5v14.76c0,1.61-1.3,2.91-2.91,2.91h-.15c-1.57,0-2.84-1.27-2.84-2.84v-14.84c0-3.53,2.86-6.4,6.4-6.4h14.6c1.58,0,2.87,1.29,2.87,2.87,0,.07,0,.14,0,.21ZM80.68,66.04c0-1.63,1.32-2.95,2.95-2.95s2.95,1.32,2.95,2.95-1.32,2.95-2.95,2.95-2.95-1.32-2.95-2.95ZM92.96,66.04c0-1.63,1.32-2.95,2.95-2.95s2.95,1.32,2.95,2.95-1.32,2.95-2.95,2.95-2.95-1.32-2.95-2.95ZM101.8,48.49c0,3.53-2.87,6.4-6.4,6.4h-11.28c-3.53,0-6.4-2.87-6.4-6.4v-11.28c0-3.53,2.87-6.4,6.4-6.4h11.28c3.53,0,6.4,2.87,6.4,6.4v11.28Z" fill="#d60b52"/>
  </g>
  <g>
    <g>
      <path d="M343.36,71.52s.04,0,.06,0h17.16c4.59,0,8.14.82,10.54,2.43,1.99,1.48,2.99,4.25,2.99,8.22s-.99,6.66-2.89,8.04c-2.3,1.61-5.73,2.43-10.19,2.43h-17.64s-.02,0-.03,0-.02,0-.03,0h-.56v.04c-2.11.29-3.73,2.09-3.73,4.27s1.75,4.12,3.97,4.3v.02h.32s.02,0,.03,0,.02,0,.03,0h13.31c2.84,0,5.08.66,6.86,2.01,1.79,1.36,4.33,5.65,7.52,12.74,2.59,5.73,4.34,9.69,5.35,11.98.55,1.75,2.19,3.03,4.12,3.03,2.38,0,4.32-1.93,4.32-4.32,0-.46-.07-.9-.2-1.31l.03-.08c-.83-1.94-2.05-4.43-4.61-10.18-2.73-6.13-4.82-10.35-6.37-12.9l-.06-.09c-.58-.87-1.14-1.64-1.7-2.33,2.4-.94,4.54-2.37,6.4-4.3,2.9-3.12,4.37-7.6,4.37-13.34,0-6.87-2.1-11.92-6.28-15.02-3.94-2.83-9.28-4.26-15.89-4.26h-17.49,0c-2.26.15-4.05,2.02-4.05,4.32s1.93,4.32,4.32,4.32Z" fill="#1d1d1b"/>
      <path d="M282.75,125.32h.01c-.15.44-.23.9-.23,1.39,0,2.38,1.93,4.32,4.32,4.32,1.78,0,3.3-1.07,3.96-2.61h0s22.33-52.06,22.33-52.06l22.17,51.56c.53,1.79,2.18,3.1,4.14,3.1,2.38,0,4.32-1.93,4.32-4.32,0-.38-.05-.74-.14-1.09h.03s-.13-.31-.13-.31c-.07-.22-.16-.42-.27-.62l-25.01-58.17c-.08-.22-.17-.43-.27-.64l-.11-.25h-.03c-.94-1.63-2.71-2.74-4.73-2.74s-3.86,1.14-4.79,2.83h-.05s-25.38,59.24-25.38,59.24c-.02.04-.04.08-.05.13l-.1.24Z" fill="#1d1d1b"/>
      <path d="M229.71,68.59h-.01c.15-.44.23-.9.23-1.39,0-2.38-1.93-4.32-4.32-4.32-1.78,0-3.3,1.07-3.96,2.61h0s-22.33,52.06-22.33,52.06l-22.17-51.56c-.53-1.79-2.18-3.1-4.14-3.1-2.38,0-4.32,1.93-4.32,4.32,0,.38.05.74.14,1.09h-.03s.13.31.13.31c.07.22.16.42.27.62l25.01,58.17c.08.22.17.43.27.64l.11.25h.03c.94,1.63,2.71,2.74,4.73,2.74s3.86-1.14,4.79-2.83h.05s25.38-59.24,25.38-59.24c.02-.04.04-.08.05-.13l.1-.24Z" fill="#1d1d1b"/>
      <path d="M234.72,120.49c5.53,6.89,13.44,10.53,22.86,10.53,8.12,0,15.38-2.9,20.75-8.2,1.05-.79,1.72-2.04,1.72-3.45,0-2.38-1.93-4.32-4.32-4.32-1.07,0-2.04.39-2.79,1.03-.03,0-.05,0-.06,0-3.8,4.18-8.94,6.3-15.3,6.3-13.26,0-21.83-9.98-21.83-25.44s8.57-25.44,21.83-25.44c6.06,0,11.01,1.93,14.75,5.73.79.98,2,1.61,3.36,1.61,2.38,0,4.32-1.93,4.32-4.32,0-.89-.27-1.71-.73-2.4.01-.03.01-.06,0-.08-.08-.08-.15-.16-.23-.24-.16-.2-.34-.38-.53-.55-5.39-5.43-12.73-8.39-20.94-8.39-9.43,0-17.34,3.64-22.86,10.53-4.9,6.1-7.6,14.46-7.6,23.54s2.7,17.43,7.6,23.54Z" fill="#1d1d1b"/>
      <path d="M389.77,126.15c-.02.18-.04.37-.04.56,0,.09,0,.18.01.27,0,.13,0,.27-.01.41h.06c.31,1.98,1.97,3.51,4.01,3.63h0s20.18.01,20.18.01c6.6,0,12.28-1.68,16.88-4.98,4.55-3.26,7.98-7.52,10.22-12.67,2.23-5.14,3.36-10.67,3.36-16.42s-1.13-11.36-3.36-16.51c-2.23-5.15-5.67-9.41-10.22-12.67-4.52-3.24-10.2-4.89-16.88-4.89h-19.92c-2.38,0-4.32,1.93-4.32,4.32s1.93,4.32,4.32,4.32c.02,0,.04,0,.06,0h19.86c4.67,0,8.52,1.04,11.76,3.18,3.24,2.18,5.73,5.2,7.41,8.95,1.77,3.96,2.67,8.44,2.67,13.31s-.9,9.35-2.67,13.31c-1.66,3.72-4.08,6.62-7.38,8.84-3.35,2.21-7.21,3.28-11.78,3.28h-15.55v-26.59c0-2.38-1.93-4.32-4.32-4.32s-4.32,1.93-4.32,4.32c0,.02,0,.04,0,.06v29.69c0,.2-.01.39-.02.59Z" fill="#1d1d1b"/>
    </g>
    <circle cx="415.03" cy="99.66" r="5.18" fill="#d60b52"/>
    <circle cx="258.78" cy="99.66" r="5.18" fill="#d60b52"/>
  </g>
  <text transform="translate(168.41 54.9) rotate(-2.83) scale(.85 1) skewX(3.9)" fill="#d60b52" font-family="BelaciosBrush, &apos;Belacios Brush&apos;" font-size="61.47"><tspan x="0" y="0" letter-spacing="0em">M</tspan><tspan x="59.07" y="0">i tarjeta</tspan></text>
</svg>