<?xml version="1.0" encoding="UTF-8"?>
<svg id="Capa_1" data-name="Capa 1" xmlns="http://www.w3.org/2000/svg" viewBox="0 0 284.75 129.16">
  <g>
    <g>
      <path d="M183.68,69.66s.04,0,.06,0h17.16c4.59,0,8.14.82,10.54,2.43,1.99,1.48,2.99,4.25,2.99,8.22s-.99,6.66-2.89,8.04c-2.3,1.61-5.73,2.43-10.19,2.43h-17.64s-.02,0-.03,0-.02,0-.03,0h-.56v.04c-2.11.29-3.73,2.09-3.73,4.27s1.75,4.12,3.97,4.3v.02h.32s.02,0,.03,0,.02,0,.03,0h13.31c2.84,0,5.08.66,6.86,2.01,1.79,1.36,4.33,5.65,7.52,12.74,2.59,5.73,4.34,9.69,5.35,11.98.55,1.75,2.19,3.03,4.12,3.03,2.38,0,4.32-1.93,4.32-4.32,0-.46-.07-.9-.2-1.31l.03-.08c-.83-1.94-2.05-4.43-4.61-10.18-2.73-6.13-4.82-10.35-6.37-12.9l-.06-.09c-.58-.87-1.14-1.64-1.7-2.33,2.4-.94,4.54-2.37,6.4-4.3,2.9-3.12,4.37-7.6,4.37-13.34,0-6.87-2.1-11.92-6.28-15.02-3.94-2.83-9.28-4.26-15.89-4.26h-17.49,0c-2.26.15-4.05,2.02-4.05,4.32s1.93,4.32,4.32,4.32Z" fill="#1d1d1b"/>
      <path d="M123.06,123.46h.01c-.15.44-.23.9-.23,1.39,0,2.38,1.93,4.32,4.32,4.32,1.78,0,3.3-1.07,3.96-2.61h0s22.33-52.06,22.33-52.06l22.17,51.56c.53,1.79,2.18,3.1,4.14,3.1,2.38,0,4.32-1.93,4.32-4.32,0-.38-.05-.74-.14-1.09h.03s-.13-.31-.13-.31c-.07-.22-.16-.42-.27-.62l-25.01-58.17c-.08-.22-.17-.43-.27-.64l-.11-.25h-.03c-.94-1.63-2.71-2.74-4.73-2.74s-3.86,1.14-4.79,2.83h-.05s-25.38,59.24-25.38,59.24c-.02.04-.04.08-.05.13l-.1.24Z" fill="#1d1d1b"/>
      <path d="M70.02,66.73h-.01c.15-.44.23-.9.23-1.39,0-2.38-1.93-4.32-4.32-4.32-1.78,0-3.3,1.07-3.96,2.61h0s-22.33,52.06-22.33,52.06l-22.17-51.56c-.53-1.79-2.18-3.1-4.14-3.1-2.38,0-4.32,1.93-4.32,4.32,0,.38.05.74.14,1.09h-.03s.13.31.13.31c.07.22.16.42.27.62l25.01,58.17c.08.22.17.43.27.64l.11.25h.03c.94,1.63,2.71,2.74,4.73,2.74s3.86-1.14,4.79-2.83h.05s25.38-59.24,25.38-59.24c.02-.04.04-.08.05-.13l.1-.24Z" fill="#1d1d1b"/>
      <path d="M75.04,118.63c5.53,6.89,13.44,10.53,22.86,10.53,8.12,0,15.38-2.9,20.75-8.2,1.05-.79,1.72-2.04,1.72-3.45,0-2.38-1.93-4.32-4.32-4.32-1.07,0-2.04.39-2.79,1.03-.03,0-.05,0-.06,0-3.8,4.18-8.94,6.3-15.3,6.3-13.26,0-21.83-9.98-21.83-25.44s8.57-25.44,21.83-25.44c6.06,0,11.01,1.93,14.75,5.73.79.98,2,1.61,3.36,1.61,2.38,0,4.32-1.93,4.32-4.32,0-.89-.27-1.71-.73-2.4.01-.03.01-.06,0-.08-.08-.08-.15-.16-.23-.24-.16-.2-.34-.38-.53-.55-5.39-5.43-12.73-8.39-20.94-8.39-9.43,0-17.34,3.64-22.86,10.53-4.9,6.1-7.6,14.46-7.6,23.54s2.7,17.43,7.6,23.54Z" fill="#1d1d1b"/>
      <path d="M230.08,124.29c-.02.18-.04.37-.04.56,0,.09,0,.18.01.27,0,.13,0,.27-.01.41h.06c.31,1.98,1.97,3.51,4.01,3.63h0s20.18.01,20.18.01c6.6,0,12.28-1.68,16.88-4.98,4.55-3.26,7.98-7.52,10.22-12.67,2.23-5.14,3.36-10.67,3.36-16.42s-1.13-11.36-3.36-16.51c-2.23-5.15-5.67-9.41-10.22-12.67-4.52-3.24-10.2-4.89-16.88-4.89h-19.92c-2.38,0-4.32,1.93-4.32,4.32s1.93,4.32,4.32,4.32c.02,0,.04,0,.06,0h19.86c4.67,0,8.52,1.04,11.76,3.18,3.24,2.18,5.73,5.2,7.41,8.95,1.77,3.96,2.67,8.44,2.67,13.31s-.9,9.35-2.67,13.31c-1.66,3.72-4.08,6.62-7.38,8.84-3.35,2.21-7.21,3.28-11.78,3.28h-15.55v-26.59c0-2.38-1.93-4.32-4.32-4.32s-4.32,1.93-4.32,4.32c0,.02,0,.04,0,.06v29.69c0,.2-.01.39-.02.59Z" fill="#1d1d1b"/>
    </g>
    <circle cx="255.34" cy="97.79" r="5.18" fill="#d60b52"/>
    <circle cx="99.1" cy="97.79" r="5.18" fill="#d60b52"/>
  </g>
  <g>
    <path d="M49.88,53.28c-.13,2.71-.46,9.42,1.29,11.48l.24.3-.33-.11c-1.74-.96-2.12-6.41-2.22-8.37-.32-6.87.2-14.69.63-21.47.25-4.99,1.84-25.89-.68-29.7-.68-.95-1.8-.03-2.32.48-3.95,3.45-8,13.85-10.02,20.52,0,5.78-.28,12.05-.95,15.1-.27,1.43-.92,3.24-2.55,2.77-2.19-.75-1.83-5.68-1.72-7.59.22-2.84.87-6.12,1.82-9.55-.03-6.63-.56-13.43-2.06-15.19-.79-.94-2.37,1.04-2.73,1.61-4.83,6.57-8.56,24.75-8.61,34.95-.02.8.01,1.6.04,2.33l.02.18c-.02.31-.33,1.86-1.26,2.03l-.2.07c-.52.09-1.88.21-2.45-1.17l-.35-1.27c-.05-1.41,0-3.01.08-4.67.11-3.38.32-6.83.44-10.1.22-5.29,1.59-32.15-5.13-32.8-1.92-.15-3.01.95-3.47,2.5.45.22.9.57,1.32.98,3.65,3.51,1.62,8.15-1.15,6.94-1.99-.88-2.72-4.17-2.69-6.87-1.69.02-3.17,1.39-3.99,3.08-.3.63-.46,1.13-.81,1.76-.07-.61-.11-.49-.01-1.11.36-3.03,2.55-5.16,4.96-5.34.06-.37.14-.68.26-1C6.6-.24,11.59-1.41,14.7,1.94c3.46,3.7,4.65,12.73,5.03,21.13,1.56-5.11,3.49-9.69,5.61-12.5,1.34-1.72,3.07-3.28,5.25-3.15,3.93.3,5.1,6.2,5.53,9.68.03.31.07.61.05.98,1.96-4.77,4.24-9.12,6.4-12.05,1.67-2.11,5.02-5.78,7.72-2.72,3.01,3.48,2.05,16.06,1.79,20.49-.63,9.8-1.83,19.69-2.19,29.47ZM7.17,7.47c-.03.68.05,1.41.18,2.14.11.49.76,2.6,1.32,1.47.57-1.07-.57-2.86-1.5-3.61Z" fill="#d60b52"/>
    <path d="M63.53,43.88c1.58-3.89,2.73-7.94,4.04-11.93.28-.81.35-1.18.79-1.94.09.86.05.49-.04,1.6-.52,4.45-2.96,15.08-5.35,18.33-1.1,1.53-2.73,2.1-4.08.33-2.6-3.56-2.02-16.73-1.5-21.18.16-.99.99-1.58,1.86-1.32.88.33,1.4,1.28,1.25,2.27-.5,3.16-1.5,16.35.17,18.67h.05c.87-.23,2.43-3.87,2.8-4.81ZM57.54,22.18c.05-.99.94-2.01,1.85-1.87.86.14,1.65,1.15,1.6,2.13-.27,4.31-3.87,2.71-3.46-.26Z" fill="#d60b52"/>
    <path d="M94.28,29.27c-.33,4.75-2.38,14.06-4.2,18.21-.94,2.07-2.91,5.24-5.32,2.97-4.39-4.02-4.33-26.39-4.31-33.02v-3.32c-1.62.57-3.37.9-5.4.7-.87-.2-1.5-1.16-1.39-2.14.05-.99.82-1.64,1.74-1.5,1.52.42,3.34.14,5.14-.25l.23-3.7c.16-.99.99-1.58,1.85-1.38.87.26,1.46,1.28,1.3,2.27l-.24,2.16c2.22-.42,4.21-.58,5.53.4.46.35,1.01,1.06,1.13,1.66l-.05.56c-.29-.23-.4-.29-.4-.29l-.29-.29c-1-.93-2.18-.69-3.26-.39-.97.29-1.88.65-2.79,1l-.14,4.06c-.19,6.03-.73,27.43,2.37,31.64,1.79,2.43,4.92-7.68,5.3-8.99,1.01-3.31,1.82-6.6,2.72-9.96.15-.56.18-.75.5-1.19.05.49.03.3-.02.8Z" fill="#d60b52"/>
    <path d="M107.7,22.22c.14.36.19.79.18,1.16-.05.5-.32.94-.66,1.2-1.3,5.53-3.91,16.96-2.59,20.4.58,1.45,2.29-.73,2.66-1.24,2.36-3.5,3.91-10.15,5.36-14.33.33-.88.56-1.13.37.04-.56,4.08-2.6,12.05-4.62,15.28-.9,1.46-2.88,3.58-4.6,1.83-1.96-2.05-1.14-9.53-.24-14.92-.88,1.58-1.83,3.04-2.82,4.13-1.51,1.61-4,2.96-5.78.66-2.32-2.9-1.33-7.92.21-10.7,2.39-4.23,6.33-5.35,10.68-4.64.67-.59,1.84-.03,1.86,1.14ZM97,29.08c-.45,1.19-1.04,4.04-.17,5.29.68.89,2.95-1.99,3.26-2.5,1.61-2.17,2.91-4.75,4.05-7.39-3.08-.22-5.74,1.02-7.15,4.59Z" fill="#d60b52"/>
    <path d="M129.11,28.53c-.22,5.29-2.75,16.54-5.85,20.07-1.7,1.87-4,1.98-5.73-.33-2.78-3.73-1.96-12.31-.3-17.86-2.41.18-4.99-.31-6.02-2.96-.72-1.75-.27-4.96,1.39-5.23,1.14-.18,1.55,1.21,1.62,2.25.01.61-.04,1.6-.2,2.59,1.49.6,4.23-.39,5.19-.75.15-.07.36-.08.58-.03.31-.02.64.09.99.38.7.64.93,1.74.43,2.56-1.87,3.16-4.19,13.97-1.87,17.35,2.95,4.4,7.28-10.74,7.8-12.73.54-1.81.98-3.61,1.46-5.48.18-.75.06-.43.41-1.13.08.73.11.49.09,1.29Z" fill="#d60b52"/>
    <path d="M125.33,17.97c-.37-.96.06-2.34.87-2.68.81-.29,1.87.21,2.18,1.18,1.4,4.17-2.31,4.48-3.05,1.5ZM141.29,26.64c-.55.76-1.07,1.28-1.63,1.99-2.39,2.76-4.47,5.93-6.16,9.33,2.56,15.42,4.39,36.21-1.61,41.67-2.41,2.15-4.43-.03-5.38-2.93-2.27-6.89-.98-18.32.57-24.97.91-3.79,2.17-7.72,3.83-11.37-1.07-6.52-2.39-12.35-3.34-15.81-.21-.97.21-1.98,1.08-2.2.82-.22,1.73.41,2,1.44.67,2.79,1.62,7.17,2.53,12.22,1.95-3.41,4.32-6.42,7.08-8.64.52-.52.38-.39,1.03-.73ZM131.35,42.92c-2.5,6.63-3.87,13.95-4.08,21.33-.08,3.14.15,11.11,2.08,13.35.54.65,1.14-.18,1.51-.69,3.81-5.29,2.61-20.71.49-34Z" fill="#d60b52"/>
    <path d="M141.75,34.29c.28,4.53,2.02,9.42,6.5,6.01,3.61-2.7,6.28-8.79,8.34-13.13.39-.82.21-.5.62-1.08-.08.74,0,.43-.23,1.3-1.03,4.11-3.68,9.89-6.2,12.9-2.61,3.14-6.92,5.26-9.59.04-3.33-6.41-1.71-19.7,3.51-23.64,1.81-1.32,5.2-2.1,6.92.15,2.34,3.08-.81,7.66-2.67,9.47-2.06,1.94-4.21,2.97-7.02,2.87-.22,1.85-.29,3.64-.19,5.11ZM149.15,20.72c.22-.44.55-1.26.43-1.86-.26-.48-1.97-.21-2.43,0-2.18.84-3.62,3.56-4.5,6.67,2.68-.13,5.24-2.29,6.5-4.81Z" fill="#d60b52"/>
    <path d="M170.13,25.52c-.33,4.75-2.38,14.06-4.2,18.21-.94,2.07-2.91,5.24-5.32,2.97-4.39-4.02-4.33-26.39-4.31-33.02v-3.32c-1.62.57-3.37.9-5.4.7-.87-.2-1.5-1.16-1.39-2.14.05-.99.83-1.64,1.74-1.5,1.52.42,3.34.14,5.14-.25l.23-3.7c.16-.99.99-1.58,1.85-1.38.87.26,1.46,1.28,1.3,2.27l-.24,2.16c2.22-.42,4.21-.58,5.53.4.46.35,1.01,1.06,1.13,1.66l-.04.56c-.29-.23-.4-.29-.4-.29l-.29-.29c-1-.93-2.19-.69-3.26-.39-.97.29-1.88.65-2.79,1l-.14,4.06c-.19,6.03-.73,27.43,2.37,31.64,1.79,2.43,4.92-7.68,5.3-8.99,1.01-3.31,1.82-6.6,2.72-9.96.15-.56.18-.75.5-1.19.05.49.03.3-.02.8Z" fill="#d60b52"/>
    <path d="M183.55,18.46c.14.36.19.79.18,1.16-.05.5-.32.94-.66,1.2-1.3,5.53-3.91,16.97-2.59,20.4.58,1.45,2.29-.73,2.66-1.24,2.36-3.5,3.91-10.15,5.36-14.33.33-.88.56-1.13.37.04-.56,4.08-2.6,12.05-4.62,15.28-.9,1.46-2.88,3.58-4.6,1.83-1.96-2.05-1.14-9.53-.24-14.92-.88,1.58-1.83,3.04-2.82,4.13-1.51,1.61-4,2.96-5.78.66-2.32-2.9-1.33-7.92.21-10.7,2.39-4.23,6.33-5.35,10.68-4.64.67-.59,1.84-.03,1.86,1.13ZM172.85,25.32c-.45,1.19-1.04,4.04-.17,5.29.68.89,2.95-1.99,3.26-2.5,1.61-2.17,2.91-4.75,4.05-7.39-3.08-.22-5.74,1.02-7.15,4.59Z" fill="#d60b52"/>
  </g>
</svg>